# xmcd
#
# Track frame offsets:
#	150
#	17868
#	30558
#	53437
#	70167
#	82869
#	97009
#	109469
#	126885
#	146804
#	156611
#	167101
#	178378
#
# Disc length: 2530 seconds
#
# Revision: 3
# Processed by: cddbd v1.5.2PL0 Copyright (c) Steve Scherf et al.
# Submitted via: audiograbber 1.83.01
#
DISCID=b809e00d
DTITLE=Various Artist - Country Karaoke Classics CKC024
DYEAR=2004
DGENRE=Country
TTITLE0=Cash, Johnny - A Boy Named Sue
TTITLE1=Cash, Johnny - Folsom Prison Blues
TTITLE2=Cash, Johnny and Dave Matthews - For You
TTITLE3=Cash, Johnny - Hurt
TTITLE4=Cash, Johnny - I Walk The Line
TTITLE5=Cash, Johnny - Man In Black
TTITLE6=Cash, Johnny - Ring Of Fire
TTITLE7=Cash, Johnny and Roseanne Cash - September When It Comes
TTITLE8=Cash, Johnny - Sunday Mornin Comin Down
TTITLE9=Miller, Roger - Dang Me
TTITLE10=Miller, Roger - Chug A Lug
TTITLE11=Miller, Roger - Engine Engine Number Nine
TTITLE12=Miller, Roger - King Of The Road
EXTD=
EXTT0=
EXTT1=
EXTT2=
EXTT3=
EXTT4=
EXTT5=
EXTT6=
EXTT7=
EXTT8=
EXTT9=
EXTT10=
EXTT11=
EXTT12=
PLAYORDER=
